<?xml version="1.0" encoding="UTF-8"?>
<svg xmlns="http://www.w3.org/2000/svg" xmlns:xlink="http://www.w3.org/1999/xlink" width="96px" height="96px" viewBox="0 0 96 96" version="1.1">
<g id="surface1">
<path style=" stroke:none;fill-rule:nonzero;fill:rgb(58.823529%,41.176471%,100%);fill-opacity:1;" d="M 95.460938 88.84375 L 64.308594 28.691406 C 63.042969 26.25 59.933594 25.246094 57.367188 26.449219 C 54.800781 27.65625 53.746094 30.613281 55.011719 33.054688 L 82.484375 86.089844 L 36.839844 86.089844 L 46.117188 68.179688 L 55.5625 68.179688 C 58.378906 68.117188 60.628906 65.929688 60.628906 63.246094 C 60.628906 60.566406 58.378906 58.375 55.5625 58.316406 L 42.898438 58.316406 C 40.925781 58.316406 39.121094 59.382812 38.25 61.066406 L 23.859375 88.84375 C 23.066406 90.371094 23.160156 92.179688 24.105469 93.628906 C 25.050781 95.078125 26.714844 95.957031 28.507812 95.957031 L 90.816406 95.957031 C 92.609375 95.957031 94.269531 95.074219 95.214844 93.628906 C 96.160156 92.179688 96.253906 90.371094 95.460938 88.84375 Z M 95.460938 88.84375 "/>
<path style=" stroke:none;fill-rule:nonzero;fill:rgb(58.823529%,41.176471%,100%);fill-opacity:1;" d="M 52.050781 0.550781 C 49.480469 -0.652344 46.375 0.351562 45.109375 2.792969 L 0.539062 88.84375 C -0.308594 90.425781 -0.191406 92.320312 0.835938 93.800781 C 1.867188 95.28125 3.65625 96.121094 5.519531 96 C 7.378906 95.875 9.027344 94.808594 9.832031 93.203125 L 54.40625 7.15625 C 55.671875 4.710938 54.617188 1.753906 52.050781 0.550781 Z M 52.050781 0.550781 "/>
</g>
</svg>
