<?xml version="1.0" encoding="UTF-8"?>
<svg xmlns="http://www.w3.org/2000/svg" xmlns:xlink="http://www.w3.org/1999/xlink" width="512px" height="512px" viewBox="0 0 512 512" version="1.1">
<g id="surface1">
<path style=" stroke:none;fill-rule:nonzero;fill:rgb(58.823529%,41.176471%,100%);fill-opacity:1;" d="M 509.128906 473.824219 L 342.972656 153.03125 C 336.21875 140 319.648438 134.644531 305.957031 141.070312 C 292.265625 147.492188 286.636719 163.265625 293.390625 176.296875 L 439.917969 459.15625 L 196.476562 459.15625 L 245.964844 363.617188 L 296.335938 363.617188 C 311.359375 363.300781 323.363281 351.621094 323.363281 337.320312 C 323.363281 323.019531 311.359375 311.335938 296.335938 311.019531 L 228.789062 311.019531 C 218.265625 311.019531 208.65625 316.710938 204.003906 325.695312 L 127.253906 473.824219 C 123.027344 481.980469 123.523438 491.632812 128.570312 499.351562 C 133.613281 507.074219 142.488281 511.769531 152.039062 511.769531 L 484.359375 511.769531 C 493.910156 511.761719 502.777344 507.066406 507.816406 499.34375 C 512.855469 491.625 513.351562 481.976562 509.128906 473.824219 Z M 509.128906 473.824219 "/>
<path style=" stroke:none;fill-rule:nonzero;fill:rgb(58.823529%,41.176471%,100%);fill-opacity:1;" d="M 277.59375 2.9375 C 263.902344 -3.484375 247.332031 1.871094 240.582031 14.902344 L 2.871094 473.824219 C -1.640625 482.273438 -1.03125 492.375 4.46875 500.273438 C 9.964844 508.171875 19.5 512.648438 29.429688 511.988281 C 39.363281 511.332031 48.152344 505.640625 52.445312 497.09375 L 290.160156 38.160156 C 296.914062 25.132812 291.285156 9.359375 277.59375 2.9375 Z M 277.59375 2.9375 "/>
</g>
</svg>
