<?xml version="1.0" encoding="UTF-8"?>
<svg xmlns="http://www.w3.org/2000/svg" xmlns:xlink="http://www.w3.org/1999/xlink" width="152px" height="152px" viewBox="0 0 152 152" version="1.1">
<g id="surface1">
<path style=" stroke:none;fill-rule:nonzero;fill:rgb(58.823529%,41.176471%,100%);fill-opacity:1;" d="M 151.148438 140.667969 L 101.820312 45.429688 C 99.816406 41.5625 94.894531 39.972656 90.832031 41.878906 C 86.765625 43.789062 85.097656 48.46875 87.101562 52.339844 L 130.601562 136.3125 L 58.328125 136.3125 L 73.019531 107.949219 L 87.976562 107.949219 C 92.433594 107.855469 96 104.386719 96 100.140625 C 96 95.894531 92.433594 92.429688 87.976562 92.332031 L 67.921875 92.332031 C 64.796875 92.332031 61.945312 94.023438 60.5625 96.691406 L 37.777344 140.667969 C 36.523438 143.085938 36.671875 145.953125 38.167969 148.246094 C 39.667969 150.539062 42.300781 151.929688 45.136719 151.929688 L 143.792969 151.929688 C 146.628906 151.929688 149.261719 150.535156 150.757812 148.242188 C 152.253906 145.949219 152.402344 143.085938 151.148438 140.667969 Z M 151.148438 140.667969 "/>
<path style=" stroke:none;fill-rule:nonzero;fill:rgb(58.823529%,41.176471%,100%);fill-opacity:1;" d="M 82.410156 0.871094 C 78.347656 -1.035156 73.425781 0.554688 71.421875 4.421875 L 0.851562 140.667969 C -0.488281 143.175781 -0.304688 146.171875 1.328125 148.519531 C 2.957031 150.863281 5.789062 152.191406 8.738281 151.996094 C 11.6875 151.800781 14.296875 150.113281 15.570312 147.574219 L 86.140625 11.328125 C 88.144531 7.460938 86.476562 2.777344 82.410156 0.871094 Z M 82.410156 0.871094 "/>
</g>
</svg>
