<?xml version="1.0" encoding="UTF-8"?>
<svg xmlns="http://www.w3.org/2000/svg" xmlns:xlink="http://www.w3.org/1999/xlink" width="192px" height="192px" viewBox="0 0 192 192" version="1.1">
<g id="surface1">
<path style=" stroke:none;fill-rule:nonzero;fill:rgb(58.823529%,41.176471%,100%);fill-opacity:1;" d="M 190.921875 177.683594 L 128.613281 57.386719 C 126.082031 52.5 119.867188 50.492188 114.734375 52.902344 C 109.597656 55.308594 107.488281 61.226562 110.019531 66.113281 L 164.96875 172.183594 L 73.679688 172.183594 L 92.238281 136.355469 L 111.125 136.355469 C 116.757812 136.238281 121.261719 131.859375 121.261719 126.496094 C 121.261719 121.132812 116.757812 116.75 111.125 116.632812 L 85.796875 116.632812 C 81.851562 116.632812 78.246094 118.765625 76.5 122.136719 L 47.71875 177.683594 C 46.136719 180.742188 46.320312 184.363281 48.214844 187.257812 C 50.105469 190.152344 53.433594 191.914062 57.015625 191.914062 L 181.636719 191.914062 C 185.214844 191.910156 188.542969 190.148438 190.429688 187.253906 C 192.320312 184.359375 192.507812 180.742188 190.921875 177.683594 Z M 190.921875 177.683594 "/>
<path style=" stroke:none;fill-rule:nonzero;fill:rgb(58.823529%,41.176471%,100%);fill-opacity:1;" d="M 104.097656 1.101562 C 98.964844 -1.304688 92.75 0.703125 90.21875 5.585938 L 1.078125 177.683594 C -0.613281 180.851562 -0.386719 184.640625 1.675781 187.601562 C 3.738281 190.566406 7.3125 192.242188 11.035156 191.996094 C 14.761719 191.75 18.058594 189.617188 19.667969 186.410156 L 108.8125 14.308594 C 111.34375 9.425781 109.230469 3.511719 104.097656 1.101562 Z M 104.097656 1.101562 "/>
</g>
</svg>
