<?xml version="1.0" encoding="UTF-8"?>
<svg xmlns="http://www.w3.org/2000/svg" xmlns:xlink="http://www.w3.org/1999/xlink" width="144px" height="144px" viewBox="0 0 144 144" version="1.1">
<g id="surface1">
<path style=" stroke:none;fill-rule:nonzero;fill:rgb(58.823529%,41.176471%,100%);fill-opacity:1;" d="M 143.191406 133.261719 L 96.460938 43.039062 C 94.5625 39.375 89.902344 37.867188 86.050781 39.675781 C 82.199219 41.484375 80.617188 45.917969 82.515625 49.582031 L 123.726562 129.136719 L 55.257812 129.136719 L 69.175781 102.269531 L 83.34375 102.269531 C 87.570312 102.179688 90.945312 98.894531 90.945312 94.871094 C 90.945312 90.847656 87.570312 87.5625 83.34375 87.472656 L 64.347656 87.472656 C 61.386719 87.472656 58.683594 89.074219 57.375 91.601562 L 35.789062 133.261719 C 34.601562 135.558594 34.742188 138.273438 36.160156 140.441406 C 37.578125 142.613281 40.074219 143.933594 42.761719 143.933594 L 136.226562 143.933594 C 138.910156 143.933594 141.40625 142.613281 142.824219 140.441406 C 144.242188 138.269531 144.378906 135.554688 143.191406 133.261719 Z M 143.191406 133.261719 "/>
<path style=" stroke:none;fill-rule:nonzero;fill:rgb(58.823529%,41.176471%,100%);fill-opacity:1;" d="M 78.074219 0.828125 C 74.222656 -0.980469 69.5625 0.527344 67.664062 4.191406 L 0.808594 133.261719 C -0.460938 135.640625 -0.289062 138.480469 1.257812 140.703125 C 2.800781 142.921875 5.484375 144.183594 8.277344 143.996094 C 11.070312 143.8125 13.542969 142.210938 14.75 139.808594 L 81.609375 10.734375 C 83.507812 7.070312 81.925781 2.632812 78.074219 0.828125 Z M 78.074219 0.828125 "/>
</g>
</svg>
