<?xml version="1.0" encoding="UTF-8"?>
<svg xmlns="http://www.w3.org/2000/svg" xmlns:xlink="http://www.w3.org/1999/xlink" width="384px" height="384px" viewBox="0 0 384 384" version="1.1">
<g id="surface1">
<path style=" stroke:none;fill-rule:nonzero;fill:rgb(58.823529%,41.176471%,100%);fill-opacity:1;" d="M 381.84375 355.371094 L 257.226562 114.773438 C 252.164062 105 239.738281 100.984375 229.46875 105.800781 C 219.199219 110.621094 214.980469 122.449219 220.042969 132.222656 L 329.9375 344.367188 L 147.359375 344.367188 L 184.472656 272.714844 L 222.253906 272.714844 C 233.519531 272.476562 242.519531 263.714844 242.519531 252.988281 C 242.519531 242.261719 233.519531 233.503906 222.253906 233.265625 L 171.59375 233.265625 C 163.699219 233.265625 156.492188 237.53125 153.003906 244.269531 L 95.441406 355.371094 C 92.269531 361.484375 92.644531 368.722656 96.425781 374.515625 C 100.210938 380.304688 106.867188 383.828125 114.03125 383.828125 L 363.269531 383.828125 C 370.433594 383.820312 377.082031 380.296875 380.863281 374.507812 C 384.640625 368.71875 385.015625 361.480469 381.84375 355.371094 Z M 381.84375 355.371094 "/>
<path style=" stroke:none;fill-rule:nonzero;fill:rgb(58.823529%,41.176471%,100%);fill-opacity:1;" d="M 208.195312 2.203125 C 197.925781 -2.613281 185.5 1.402344 180.433594 11.175781 L 2.15625 355.371094 C -1.230469 361.703125 -0.773438 369.28125 3.351562 375.207031 C 7.472656 381.128906 14.625 384.484375 22.074219 383.992188 C 29.523438 383.5 36.117188 379.230469 39.335938 372.820312 L 217.621094 28.621094 C 222.683594 18.847656 218.464844 7.019531 208.195312 2.203125 Z M 208.195312 2.203125 "/>
</g>
</svg>
