<?xml version="1.0" encoding="UTF-8"?>
<svg xmlns="http://www.w3.org/2000/svg" xmlns:xlink="http://www.w3.org/1999/xlink" width="72px" height="72px" viewBox="0 0 72 72" version="1.1">
<g id="surface1">
<path style=" stroke:none;fill-rule:nonzero;fill:rgb(58.823529%,41.176471%,100%);fill-opacity:1;" d="M 71.597656 66.632812 L 48.230469 21.519531 C 47.28125 19.6875 44.949219 18.933594 43.023438 19.835938 C 41.101562 20.742188 40.308594 22.960938 41.257812 24.792969 L 61.863281 64.570312 L 27.628906 64.570312 L 34.589844 51.132812 L 41.671875 51.132812 C 43.785156 51.089844 45.472656 49.445312 45.472656 47.433594 C 45.472656 45.425781 43.785156 43.78125 41.671875 43.738281 L 32.171875 43.738281 C 30.695312 43.738281 29.34375 44.539062 28.6875 45.800781 L 17.894531 66.632812 C 17.300781 67.777344 17.371094 69.136719 18.078125 70.222656 C 18.789062 71.308594 20.039062 71.96875 21.378906 71.96875 L 68.113281 71.96875 C 69.457031 71.964844 70.703125 71.304688 71.410156 70.21875 C 72.121094 69.132812 72.191406 67.777344 71.597656 66.632812 Z M 71.597656 66.632812 "/>
<path style=" stroke:none;fill-rule:nonzero;fill:rgb(58.823529%,41.176471%,100%);fill-opacity:1;" d="M 39.035156 0.414062 C 37.109375 -0.488281 34.78125 0.261719 33.832031 2.09375 L 0.402344 66.632812 C -0.230469 67.820312 -0.144531 69.238281 0.628906 70.351562 C 1.402344 71.460938 2.742188 72.089844 4.140625 72 C 5.535156 71.90625 6.773438 71.105469 7.375 69.902344 L 40.804688 5.367188 C 41.753906 3.535156 40.960938 1.316406 39.035156 0.414062 Z M 39.035156 0.414062 "/>
</g>
</svg>
