<?xml version="1.0" encoding="UTF-8"?>
<svg xmlns="http://www.w3.org/2000/svg" xmlns:xlink="http://www.w3.org/1999/xlink" width="128px" height="128px" viewBox="0 0 128 128" version="1.1">
<g id="surface1">
<path style=" stroke:none;fill-rule:nonzero;fill:rgb(58.823529%,41.176471%,100%);fill-opacity:1;" d="M 127.28125 118.457031 L 85.742188 38.257812 C 84.054688 35 79.914062 33.660156 76.488281 35.265625 C 73.066406 36.875 71.660156 40.816406 73.347656 44.074219 L 109.980469 114.789062 L 49.121094 114.789062 L 61.492188 90.90625 L 74.085938 90.90625 C 77.839844 90.824219 80.839844 87.90625 80.839844 84.328125 C 80.839844 80.753906 77.839844 77.835938 74.085938 77.753906 L 57.199219 77.753906 C 54.566406 77.753906 52.164062 79.175781 51 81.421875 L 31.8125 118.457031 C 30.757812 120.496094 30.882812 122.90625 32.140625 124.839844 C 33.402344 126.769531 35.621094 127.941406 38.011719 127.941406 L 121.089844 127.941406 C 123.476562 127.941406 125.695312 126.765625 126.953125 124.835938 C 128.214844 122.90625 128.339844 120.492188 127.28125 118.457031 Z M 127.28125 118.457031 "/>
<path style=" stroke:none;fill-rule:nonzero;fill:rgb(58.823529%,41.176471%,100%);fill-opacity:1;" d="M 69.398438 0.734375 C 65.976562 -0.871094 61.832031 0.46875 60.144531 3.726562 L 0.71875 118.457031 C -0.410156 120.566406 -0.257812 123.09375 1.117188 125.070312 C 2.492188 127.042969 4.875 128.160156 7.359375 127.996094 C 9.839844 127.832031 12.039062 126.410156 13.113281 124.273438 L 72.539062 9.539062 C 74.226562 6.28125 72.820312 2.339844 69.398438 0.734375 Z M 69.398438 0.734375 "/>
</g>
</svg>
